<?xml version="1.0" encoding="UTF-8" standalone="no"?>
<!-- Generator: Adobe Illustrator 15.1.0, SVG Export Plug-In . SVG Version: 6.00 Build 0)  -->

<svg
   version="1.1"
   id="Layer_1"
   x="0px"
   y="0px"
   width="1009.449px"
   height="193.491px"
   viewBox="0 0 1009.449 193.491"
   enable-background="new 0 0 1009.449 193.491"
   xml:space="preserve"
   sodipodi:docname="Icons.svg"
   inkscape:version="1.4.2 (ebf0e940, 2025-05-08)"
   xmlns:inkscape="http://www.inkscape.org/namespaces/inkscape"
   xmlns:sodipodi="http://sodipodi.sourceforge.net/DTD/sodipodi-0.dtd"
   xmlns="http://www.w3.org/2000/svg"
   xmlns:svg="http://www.w3.org/2000/svg"><defs
   id="defs95" /><sodipodi:namedview
   id="namedview95"
   pagecolor="#ffffff"
   bordercolor="#000000"
   borderopacity="0.25"
   inkscape:showpageshadow="2"
   inkscape:pageopacity="0.0"
   inkscape:pagecheckerboard="0"
   inkscape:deskcolor="#d1d1d1"
   inkscape:zoom="0.76012948"
   inkscape:cx="438.74104"
   inkscape:cy="128.9254"
   inkscape:window-width="1440"
   inkscape:window-height="785"
   inkscape:window-x="0"
   inkscape:window-y="25"
   inkscape:window-maximized="1"
   inkscape:current-layer="Layer_1" />
<path
   fill="#1E1E1E"
   d="M122.53,14.46c-7.732,0-14.667,3.483-19.312,8.965c-4.646-5.481-11.58-8.965-19.312-8.965H20.576v115.479  h62.925c2.393,5.802,8.147,12.197,19.717,12.197c11.533,0,17.748-6.479,20.528-12.197h58.896V14.46H122.53z M122.53,26.464h48.108  v81.157H131.38c-11.765,0-18.518,3.265-22.161,7.907V39.776C109.219,32.434,115.19,26.464,122.53,26.464z M32.581,26.464h51.326  c7.339,0,13.309,5.97,13.309,13.312v75.752c-3.11-4.643-10.114-7.907-22.161-7.907H32.581V26.464z"
   id="path1"
   style="fill:#b3b3b3" />
<g
   id="g8">
	<text
   transform="scale(1.0089599,0.99111967)"
   fill="#050606"
   font-family="ProximaNova-Regular"
   font-size="25.5083px"
   id="text1"
   x="262.9061"
   y="177.33549"
   style="font-style:normal;font-variant:normal;font-weight:normal;font-stretch:normal;font-size:25.5083px;font-family:Arial;-inkscape-font-specification:'Arial, Normal';font-variant-ligatures:normal;font-variant-caps:normal;font-variant-numeric:normal;font-variant-east-asian:normal;fill:#666666;stroke-width:1.00896">Analytics</text>
	<rect
   x="239.203"
   y="94.375"
   fill="#1E1E1E"
   width="18.866"
   height="37.074"
   id="rect1"
   style="fill:#b3b3b3" />
	<rect
   x="263.276"
   y="78.017"
   fill="#1E1E1E"
   width="18.867"
   height="53.433"
   id="rect2"
   style="fill:#b3b3b3" />
	<rect
   x="286.01"
   y="42.472"
   fill="#1E1E1E"
   width="18.867"
   height="88.978"
   id="rect3"
   style="fill:#b3b3b3" />
	<circle
   fill="#1E1E1E"
   cx="339.552"
   cy="66.915"
   r="6.029"
   id="circle3"
   style="fill:#b3b3b3" />
	<circle
   fill="#1E1E1E"
   cx="373.729"
   cy="92.46"
   r="6.029"
   id="circle4"
   style="fill:#b3b3b3" />
	<circle
   fill="#1E1E1E"
   cx="391.735"
   cy="54.855"
   r="6.029"
   id="circle5"
   style="fill:#b3b3b3" />
	<circle
   fill="#1E1E1E"
   cx="323.866"
   cy="118.005"
   r="6.029"
   id="circle6"
   style="fill:#b3b3b3" />
	
		<line
   fill="#1E1E1E"
   stroke="#1E1E1E"
   stroke-width="4"
   stroke-miterlimit="10"
   x1="339.553"
   y1="66.915"
   x2="323.867"
   y2="118.005"
   id="line6"
   style="fill:#008080;stroke:#b3b3b3;stroke-opacity:1" />
	
		<line
   fill="#1E1E1E"
   stroke="#1E1E1E"
   stroke-width="4"
   stroke-miterlimit="10"
   x1="373.729"
   y1="92.989"
   x2="337.984"
   y2="65.049"
   id="line7"
   style="fill:#008080;stroke:#b3b3b3;stroke-opacity:1" />
	
		<line
   fill="#1E1E1E"
   stroke="#1E1E1E"
   stroke-width="4"
   stroke-miterlimit="10"
   x1="391.736"
   y1="54.855"
   x2="373.729"
   y2="95.251"
   id="line8"
   style="fill:#b3b3b3;stroke:#b3b3b3;stroke-opacity:1;fill-opacity:1" />
</g>
<path
   fill="#1E1E1E"
   d="m 500.202,58.324 c 0,2.408 -1.951,4.359 -4.358,4.359 h -32.226 c -2.408,0 -4.359,-1.951 -4.359,-4.359 V 26.618 c 0,-2.408 1.951,-4.359 4.359,-4.359 h 32.226 c 2.407,0 4.358,1.951 4.358,4.359 z"
   id="path8"
   style="fill:#b3b3b3"
   sodipodi:nodetypes="sssssssss" />
<path
   fill="#1E1E1E"
   d="m 599,133.772 c 0,1.972 -1.598,3.569 -3.569,3.569 h -26.385 c -1.971,0 -3.569,-1.598 -3.569,-3.569 v -25.961 c 0,-1.971 1.598,-3.568 3.569,-3.568 h 26.385 c 1.972,0 3.569,1.598 3.569,3.568 z"
   id="path9"
   style="fill:#b3b3b3"
   sodipodi:nodetypes="sssssssss" />
<path
   fill="#1E1E1E"
   d="m 600.058,27.423 c 0,2.852 -2.312,5.164 -5.163,5.164 H 513.72 c -2.852,0 -5.164,-2.312 -5.164,-5.164 v 0 c 0,-2.852 2.312,-5.164 5.164,-5.164 h 81.175 c 2.852,0 5.163,2.312 5.163,5.164 z"
   id="path10"
   style="fill:#b3b3b3"
   sodipodi:nodetypes="ssssssss" />
<path
   fill="#1E1E1E"
   d="m 600.058,44.372 c 0,2.852 -2.312,5.164 -5.163,5.164 H 513.72 c -2.852,0 -5.164,-2.312 -5.164,-5.164 v 0 c 0,-2.852 2.312,-5.164 5.164,-5.164 h 81.175 c 2.852,0 5.163,2.313 5.163,5.164 z"
   id="path11"
   style="fill:#b3b3b3"
   sodipodi:nodetypes="ssssssss" />
<path
   fill="#1E1E1E"
   d="m 600.058,60.02 c 0,2.853 -2.312,5.165 -5.163,5.165 H 513.72 c -2.852,0 -5.164,-2.312 -5.164,-5.165 v 0 c 0,-2.852 2.312,-5.164 5.164,-5.164 h 81.175 c 2.852,-0.001 5.163,2.312 5.163,5.164 z"
   id="path12"
   style="fill:#b3b3b3"
   sodipodi:nodetypes="sssssscs" />
<path
   fill="#1E1E1E"
   d="m 600.058,76.958 c 0,2.853 -3.557,5.164 -7.947,5.164 H 467.205 c -4.389,0 -7.947,-2.312 -7.947,-5.164 v 0 c 0,-2.853 3.558,-5.165 7.947,-5.165 h 124.907 c 4.389,0 7.946,2.312 7.946,5.165 z"
   id="path13"
   style="fill:#b3b3b3"
   sodipodi:nodetypes="ssssssss" />
<path
   fill="#1E1E1E"
   d="m 600.058,92.989 c 0,2.853 -3.557,5.164 -7.947,5.164 H 467.205 c -4.389,0 -7.947,-2.312 -7.947,-5.164 v 0 c 0,-2.852 3.558,-5.164 7.947,-5.164 h 124.907 c 4.389,0 7.946,2.313 7.946,5.164 z"
   id="path14"
   style="fill:#b3b3b3"
   sodipodi:nodetypes="ssssssss" />
<path
   fill="#1E1E1E"
   d="m 560.303,109.53 c 0,2.852 -2.554,5.164 -5.703,5.164 h -89.639 c -3.15,0 -5.703,-2.312 -5.703,-5.164 v 0 c 0,-2.853 2.553,-5.164 5.703,-5.164 H 554.6 c 3.149,0 5.703,2.312 5.703,5.164 z"
   id="path15"
   style="fill:#b3b3b3"
   sodipodi:nodetypes="ssssssss" />
<circle
   fill="#1E1E1E"
   cx="733.499"
   cy="68.229"
   r="66.508"
   id="circle15"
   style="fill:#b3b3b3" />
<g
   id="g21">
	<g
   id="g19">
		<g
   id="g15">
			<polygon
   fill="#FFFFFF"
   points="725.555,106.791 724.524,98.883 732.179,102.354    "
   id="polygon15" />
		</g>
		<g
   id="g16">
			<path
   fill="#FFFFFF"
   d="M741.589,97.668c-0.28,0-0.562-0.055-0.832-0.175l0.816-1.891l-1.858-0.84l29.221-64.498     c-0.225-0.748-2.264-3.032-6.568-4.982c-4.243-1.922-7.278-1.977-8.042-1.668l-29.237,64.52l-1.866-0.844l-0.909,1.847     c-0.989-0.497-1.427-1.692-0.974-2.699l29.2-64.449c0.031-0.085,0.065-0.169,0.104-0.253c0.057-0.119,0.11-0.225,0.174-0.328     c0.011-0.017,0.021-0.033,0.031-0.046v-0.003c1.937-3.141,8.035-2.175,13.219,0.172c4.969,2.255,9.537,5.977,8.954,9.388     c-0.018,0.236-0.075,0.472-0.177,0.696l-29.381,64.843C743.121,97.218,742.369,97.668,741.589,97.668L741.589,97.668z"
   id="path16" />
		</g>
		<g
   id="g17">
			<path
   fill="#FFFFFF"
   d="M725.341,109.37c-0.282,0-0.568-0.059-0.839-0.181c-0.67-0.3-1.128-0.934-1.206-1.666l-2.062-19.768     c-0.085-0.8,0.308-1.575,0.999-1.985l3.738-2.205c0.525-0.311,1.155-0.371,1.729-0.169c0.571,0.201,1.027,0.647,1.241,1.216     l1.171,3.113l3.017-1.146c0.53-0.201,1.119-0.176,1.625,0.07c0.51,0.245,0.898,0.688,1.068,1.227l0.926,2.902l2.924-1.11     c0.558-0.208,1.178-0.169,1.704,0.109c0.523,0.281,0.901,0.774,1.034,1.354l0.945,4.135c0.183,0.806-0.13,1.642-0.799,2.127     l-16.009,11.582C726.189,109.237,725.768,109.37,725.341,109.37L725.341,109.37z M725.466,88.644l1.555,14.914l12.018-8.696     l-0.115-0.505l-2.742,1.043c-0.527,0.198-1.115,0.176-1.625-0.072c-0.511-0.247-0.896-0.688-1.066-1.227l-0.926-2.9l-2.92,1.108     c-0.509,0.194-1.076,0.179-1.576-0.048c-0.499-0.226-0.888-0.641-1.08-1.151l-1.034-2.751L725.466,88.644L725.466,88.644z"
   id="path17" />
		</g>
		<g
   id="g18">
			<polygon
   fill="#FFFFFF"
   points="731.751,104.298 723.376,100.505 725.071,96.755 733.447,100.55    "
   id="polygon17" />
		</g>
	</g>
	<g
   id="g20">
		<path
   fill="#FFFFFF"
   d="M723.447,105.211h-45.724c0.597,0.911,1.165,1.841,1.703,2.79c0.547,0.763,1.081,1.535,1.588,2.326    c0.492,0.482,0.979,0.968,1.452,1.469h40.98c1.818,0,3.294-1.475,3.294-3.293S725.266,105.211,723.447,105.211z"
   id="path19" />
	</g>
</g>
<path
   fill="#1E1E1E"
   d="m 972.974,137.83 h -77.045 c -6.077,0 -11.006,-4.928 -11.006,-11.007 V 27.769 c 0,-6.078 4.929,-11.006 11.006,-11.006 h 27.516 c -3.042,0 -11.006,2.461 -11.006,5.504 v 5.504 h 5.503 33.019 5.503 v -5.505 c 0,-3.042 -7.963,-5.503 -11.007,-5.503 h 27.518 c 6.077,0 11.005,4.928 11.005,11.005 v 99.056 c -10e-4,6.078 -4.929,11.006 -11.006,11.006 z M 906.937,44.278 H 895.93 v 11.006 h 11.007 V 44.278 Z m 0,22.011 H 895.93 v 11.007 h 11.007 V 66.289 Z m 0,22.013 H 895.93 v 11.006 h 11.007 V 88.302 Z m 0,22.013 H 895.93 v 11.005 h 11.007 v -11.005 z m 66.037,-66.037 h -55.032 v 11.006 h 55.032 z m 0,22.011 h -55.032 v 11.007 h 55.032 z m 0,22.013 h -55.032 v 11.006 h 55.032 z m 0,22.013 h -55.032 v 11.005 h 55.032 z M 928.947,16.763 h -5.503 V 11.26 c 0.001,-3.042 2.461,-5.504 5.503,-5.504 h 11.006 c 3.042,0 5.502,2.462 5.502,5.504 v 5.503 h -5.502 -11.006 z"
   id="path21"
   style="fill:#b3b3b3;fill-opacity:1;stroke:#b3b3b3;stroke-opacity:1"
   sodipodi:nodetypes="ssssscsccccscsscscccccccccccccccccccccccccccccccccccccccccccccccssscccc" />



<circle
   fill="#E88A7E"
   cx="44.997"
   cy="-4135.294"
   r="151.492"
   id="circle22" />
<text
   transform="matrix(1 0 0 1 -49.9521 -4135.4878)"
   fill="#EEBAB6"
   font-family="'IM_FELL_FLOWERS_1'"
   font-size="142.4711"
   id="text22">U</text>
<text
   transform="matrix(1 0 0 1 -1.4995 -4091.2437)"
   fill="#FFFFFF"
   font-family="'HoeflerText-Regular'"
   font-size="156.4514"
   id="text23">L</text>
<circle
   fill="none"
   stroke="#FFFFFF"
   stroke-width="7"
   stroke-miterlimit="10"
   cx="43.525"
   cy="-4134.265"
   r="124.815"
   id="circle23" />
<circle
   fill="#E88A7E"
   cx="435.71"
   cy="-4091.244"
   r="151.492"
   id="circle24" />
<text
   transform="matrix(1 0 0 1 340.7612 -4091.4375)"
   fill="#EEBAB6"
   font-family="'IM_FELL_FLOWERS_1'"
   font-size="142.4711"
   id="text24">U</text>
<circle
   fill="none"
   stroke="#FFFFFF"
   stroke-width="7"
   stroke-miterlimit="10"
   cx="434.238"
   cy="-4090.215"
   r="124.815"
   id="circle25" />
<circle
   fill="#E88A7E"
   cx="1182.772"
   cy="-4117.587"
   r="151.492"
   id="circle26" />
<circle
   fill="none"
   stroke="#FFFFFF"
   stroke-width="7"
   stroke-miterlimit="10"
   cx="1181.301"
   cy="-4116.558"
   r="124.815"
   id="circle27" />
<text
   transform="matrix(1 0 0 1 1080.4873 -3661.7197)"
   fill="#FDFDFE"
   font-family="'IM_FELL_FLOWERS_2'"
   font-size="573.751"
   id="text27">c</text>
<text
   transform="matrix(1 0 0 1 651.5518 -4109.064)"
   font-family="'IM_FELL_FLOWERS_1'"
   font-size="190.5237"
   id="text28">U</text>
<circle
   fill="#E88A7E"
   cx="-344.094"
   cy="-4135.488"
   r="151.492"
   id="circle28" />
<text
   transform="matrix(1 0 0 1 -439.042 -4135.6821)"
   fill="#FCFAFB"
   font-family="'IM_FELL_FLOWERS_1'"
   font-size="142.4711"
   id="text29">U</text>
<text
   transform="matrix(1 0 0 1 -826.1729 -4134.2656)"
   fill="#E88A7E"
   font-family="'IM_FELL_FLOWERS_1'"
   font-size="182.7527"
   id="text30">U</text>
<circle
   fill="#E88A7E"
   cx="1573.144"
   cy="-4109.063"
   r="151.492"
   id="circle30" />
<text
   transform="matrix(1 0 0 1 1526.6475 -4065.0137)"
   fill="#FFFFFF"
   font-family="'HoeflerText-Regular'"
   font-size="156.4514"
   id="text31">L</text>
<circle
   fill="none"
   stroke="#FFFFFF"
   stroke-width="7"
   stroke-miterlimit="10"
   cx="1571.672"
   cy="-4108.035"
   r="124.815"
   id="circle31" />
<g
   id="g32">
	
		<text
   transform="matrix(1.018 0 0 1 282.2173 -3549.1992)"
   fill="#49484A"
   font-family="'HoeflerText-Regular'"
   font-size="87.2453"
   id="text32">L</text>
</g>
<text
   transform="matrix(1 0 0 1 181.4883 -4260.5557)"
   fill="#E88A7E"
   font-family="'HoeflerText-Regular'"
   font-size="142.3804"
   id="text33">R</text>
<circle
   fill="#E88A7E"
   cx="1248.83"
   cy="-3621.52"
   r="151.492"
   id="circle33" />
<circle
   fill="none"
   stroke="#FFFFFF"
   stroke-width="7"
   stroke-miterlimit="10"
   cx="1247.358"
   cy="-3620.491"
   r="124.815"
   id="circle34" />
<text
   transform="matrix(1.018 0 0 1 247.4946 -2691.5674)"
   fill="#49484A"
   font-family="'IM_FELL_FLOWERS_2'"
   font-size="956.8307"
   id="text34">c</text>
<g
   id="g35">
	
		<text
   transform="matrix(1.018 0 0 1 490.1948 -3549.1992)"
   fill="#49484A"
   font-family="'HoeflerText-Regular'"
   font-size="87.2453"
   id="text35">C</text>
</g>
<g
   id="g36">
	
		<text
   transform="matrix(1.018 0 0 1 387.2109 -3633.7168)"
   fill="#49484A"
   font-family="'HoeflerText-Regular'"
   font-size="87.2453"
   id="text36">R</text>
</g>
<text
   transform="matrix(1.018 0 0 1 1111.6904 -4109.0635)"
   fill="#E88A7E"
   font-family="'HoeflerText-Regular'"
   font-size="52.2751"
   id="text37">L</text>
<text
   transform="matrix(1.018 0 0 1 1207.8086 -4108.0352)"
   fill="#E88A7E"
   font-family="'HoeflerText-Regular'"
   font-size="52.2751"
   id="text38">C</text>
<text
   transform="matrix(1.018 0 0 1 1161.1016 -4159.2446)"
   fill="#E88A7E"
   font-family="'HoeflerText-Regular'"
   font-size="52.2751"
   id="text39">R</text>
<circle
   fill="#E88A7E"
   cx="387.211"
   cy="-3054.095"
   r="151.492"
   id="circle39" />
<circle
   fill="none"
   stroke="#FFFFFF"
   stroke-width="7"
   stroke-miterlimit="10"
   cx="385.739"
   cy="-3053.065"
   r="124.815"
   id="circle40" />
<text
   transform="matrix(1 0 0 1 284.9258 -2598.2275)"
   fill="#FDFDFE"
   font-family="'IM_FELL_FLOWERS_2'"
   font-size="573.751"
   id="text40">c</text>
<text
   transform="matrix(1.018 0 0 1 316.1294 -3045.5713)"
   fill="#E88A7E"
   font-family="'HoeflerText-Regular'"
   font-size="52.2751"
   id="text41">L</text>
<text
   transform="matrix(1.018 0 0 1 412.2471 -3044.543)"
   fill="#E88A7E"
   font-family="'HoeflerText-Regular'"
   font-size="52.2751"
   id="text42">C</text>
<text
   transform="matrix(1.018 0 0 1 365.54 -3095.7529)"
   fill="#E88A7E"
   font-family="'HoeflerText-Regular'"
   font-size="52.2751"
   id="text43">R</text>
<circle
   fill="#5B595A"
   cx="-67.348"
   cy="-3043.389"
   r="151.492"
   id="circle43" />
<circle
   fill="none"
   stroke="#FFFFFF"
   stroke-width="7"
   stroke-miterlimit="10"
   cx="-68.82"
   cy="-3042.359"
   r="124.815"
   id="circle44" />
<text
   transform="matrix(1 0 0 1 -169.6338 -2587.5225)"
   fill="#FDFDFE"
   font-family="'IM_FELL_FLOWERS_2'"
   font-size="573.751"
   id="text44">c</text>
<g
   id="g45">
	<text
   transform="matrix(1.018 0 0 1 -138.4297 -3034.8652)"
   fill="#49484A"
   font-family="'HoeflerText-Regular'"
   font-size="52"
   id="text45">L</text>
</g>
<g
   id="g46">
	<text
   transform="matrix(1.018 0 0 1 -42.3125 -3033.8369)"
   fill="#49484A"
   font-family="'HoeflerText-Regular'"
   font-size="52"
   id="text46">C</text>
</g>
<g
   id="g47">
	<text
   transform="matrix(1.018 0 0 1 -89.0195 -3085.0459)"
   fill="#49484A"
   font-family="'HoeflerText-Regular'"
   font-size="52"
   id="text47">R</text>
</g>
<circle
   fill="#E88A7E"
   cx="-864.188"
   cy="-2672.518"
   r="219.379"
   id="circle47" />
<path
   fill="none"
   stroke="#FFFFFF"
   stroke-width="7"
   stroke-miterlimit="10"
   d="M-684.571-2671.026  c0,99.824-80.924,180.746-180.749,180.746c-99.826,0-180.748-80.922-180.748-180.746c0-99.826,80.922-180.75,180.748-180.75  C-765.495-2851.776-684.571-2770.853-684.571-2671.026z"
   id="path47" />
<text
   transform="matrix(1 0 0 1 -1012.3096 -2007.3643)"
   fill="#FDFDFE"
   font-family="'IM_FELL_FLOWERS_2'"
   font-size="830.8624"
   id="text48">c</text>
<circle
   fill="#E88A7E"
   cx="-350.121"
   cy="-2579.339"
   r="227.24"
   id="circle48" />
<path
   fill="none"
   stroke="#FFFFFF"
   stroke-width="7"
   stroke-miterlimit="10"
   d="M-165.104-2577.795  c0,103.401-83.823,187.223-187.224,187.223c-103.403,0-187.225-83.821-187.225-187.223c0-103.403,83.822-187.227,187.225-187.227  C-248.928-2765.021-165.104-2681.198-165.104-2577.795z"
   id="path48" />
<text
   transform="matrix(1 0 0 1 -503.5503 -1895.5352)"
   fill="#FDFDFE"
   font-family="'IM_FELL_FLOWERS_2'"
   font-size="860.6327"
   id="text49">c</text>
<circle
   fill="#E88A7E"
   cx="1598.674"
   cy="-2968.381"
   r="226.5"
   id="circle49" />
<path
   fill="#E88A7E"
   d="M3213.338-3254.448c0,14.003-21.906,25.354-48.93,25.354h-445.577c-27.023,0-48.93-11.351-48.93-25.354  v-230.875c0-14.003,21.906-25.354,48.93-25.354h445.577c27.023,0,48.93,11.351,48.93,25.354V-3254.448z"
   id="path49" />
<text
   transform="matrix(1.018 0 0 1 2837.5957 -3403.5391)"
   id="text50"><tspan
     x="0"
     y="0"
     fill="#FFFEFE"
     font-family="'GoudyBookletter1911'"
     font-size="70"
     id="tspan49">DATA </tspan><tspan
     x="-58.974"
     y="84"
     fill="#FFFEFE"
     font-family="'GoudyBookletter1911'"
     font-size="70"
     id="tspan50">ANALYSIS</tspan></text>
<path
   fill="#E88A7E"
   d="M2481.29-3254.448c0,14.003-21.906,25.354-48.93,25.354h-445.577c-27.023,0-48.93-11.351-48.93-25.354  v-230.875c0-14.003,21.906-25.354,48.93-25.354h445.577c27.023,0,48.93,11.351,48.93,25.354V-3254.448z"
   id="path50" />
<text
   transform="matrix(1.018 0 0 1 2075.1719 -3349.5342)"
   fill="#FFFEFE"
   font-family="'Calluna-Regular'"
   font-size="70"
   id="text51">Research</text>
<text
   transform="scale(1.0089599,0.99111967)"
   fill="#1e1e1e"
   font-family="ProximaNova-Regular"
   font-size="25.5083px"
   id="text52"
   x="46.391933"
   y="177.61931"
   style="font-style:normal;font-variant:normal;font-weight:normal;font-stretch:normal;font-size:25.5083px;font-family:Arial;-inkscape-font-specification:'Arial, Normal';font-variant-ligatures:normal;font-variant-caps:normal;font-variant-numeric:normal;font-variant-east-asian:normal;fill:#666666;stroke-width:1.00896">Research</text>
<text
   transform="scale(1.0089599,0.99111967)"
   fill="#050606"
   font-family="ProximaNova-Regular"
   font-size="25.5083px"
   id="text53"
   x="478.01971"
   y="177.33549"
   style="font-style:normal;font-variant:normal;font-weight:normal;font-stretch:normal;font-size:25.5083px;font-family:Arial;-inkscape-font-specification:'Arial, Normal';font-variant-ligatures:normal;font-variant-caps:normal;font-variant-numeric:normal;font-variant-east-asian:normal;stroke-width:1.00896;fill:#666666">Content</text>
<text
   transform="scale(1.0089599,0.99111967)"
   fill="#050606"
   font-family="ProximaNova-Regular"
   font-size="25.5083px"
   id="text54"
   x="673.82202"
   y="177.33549"
   style="font-style:normal;font-variant:normal;font-weight:normal;font-stretch:normal;font-size:25.5083px;font-family:Arial;-inkscape-font-specification:'Arial, Normal';font-variant-ligatures:normal;font-variant-caps:normal;font-variant-numeric:normal;font-variant-east-asian:normal;stroke-width:1.00896;fill:#666666">Graphics</text>
<text
   transform="scale(1.0089599,0.99111967)"
   fill="#050606"
   font-family="ProximaNova-Regular"
   font-size="25.5083px"
   id="text55"
   x="868.36121"
   y="177.33549"
   style="font-style:normal;font-variant:normal;font-weight:normal;font-stretch:normal;font-size:25.5083px;font-family:Arial;-inkscape-font-specification:'Arial, Normal';font-variant-ligatures:normal;font-variant-caps:normal;font-variant-numeric:normal;font-variant-east-asian:normal;stroke-width:1.00896;fill:#666666">Evaluation</text>
<path
   fill="#1E1E1E"
   d="m 560.303,126.479 c 0,2.852 -2.554,5.164 -5.703,5.164 h -89.639 c -3.15,0 -5.703,-2.312 -5.703,-5.164 v 0 c 0,-2.852 2.553,-5.164 5.703,-5.164 H 554.6 c 3.149,0 5.703,2.313 5.703,5.164 z"
   id="path55"
   style="fill:#b3b3b3"
   sodipodi:nodetypes="ssssssss" />























</svg>
