<?xml version="1.0" encoding="utf-8"?>
<!-- Generator: Adobe Illustrator 15.1.0, SVG Export Plug-In . SVG Version: 6.00 Build 0)  -->
<!DOCTYPE svg PUBLIC "-//W3C//DTD SVG 1.1//EN" "http://www.w3.org/Graphics/SVG/1.1/DTD/svg11.dtd">
<svg version="1.1" id="Layer_1" xmlns="http://www.w3.org/2000/svg" xmlns:xlink="http://www.w3.org/1999/xlink" x="0px" y="0px"
	 width="1009.449px" height="193.491px" viewBox="0 0 1009.449 193.491" enable-background="new 0 0 1009.449 193.491"
	 xml:space="preserve">
<path fill="#1E1E1E" d="M122.53,14.46c-7.732,0-14.667,3.483-19.312,8.965c-4.646-5.481-11.58-8.965-19.312-8.965H20.576v115.479
	h62.925c2.393,5.802,8.147,12.197,19.717,12.197c11.533,0,17.748-6.479,20.528-12.197h58.896V14.46H122.53z M122.53,26.464h48.108
	v81.157H131.38c-11.765,0-18.518,3.265-22.161,7.907V39.776C109.219,32.434,115.19,26.464,122.53,26.464z M32.581,26.464h51.326
	c7.339,0,13.309,5.97,13.309,13.312v75.752c-3.11-4.643-10.114-7.907-22.161-7.907H32.581V26.464z"/>
<g>
	<text transform="matrix(1.018 0 0 1 267.2617 175.7607)" fill="#050606" font-family="'ProximaNova-Regular'" font-size="25.2818">Analytics</text>
	<rect x="239.203" y="94.375" fill="#1E1E1E" width="18.866" height="37.074"/>
	<rect x="263.276" y="78.017" fill="#1E1E1E" width="18.867" height="53.433"/>
	<rect x="286.01" y="42.472" fill="#1E1E1E" width="18.867" height="88.978"/>
	<circle fill="#1E1E1E" cx="339.552" cy="66.915" r="6.029"/>
	<circle fill="#1E1E1E" cx="373.729" cy="92.46" r="6.029"/>
	<circle fill="#1E1E1E" cx="391.735" cy="54.855" r="6.029"/>
	<circle fill="#1E1E1E" cx="323.866" cy="118.005" r="6.029"/>
	
		<line fill="#1E1E1E" stroke="#1E1E1E" stroke-width="4" stroke-miterlimit="10" x1="339.553" y1="66.915" x2="323.867" y2="118.005"/>
	
		<line fill="#1E1E1E" stroke="#1E1E1E" stroke-width="4" stroke-miterlimit="10" x1="373.729" y1="92.989" x2="337.984" y2="65.049"/>
	
		<line fill="#1E1E1E" stroke="#1E1E1E" stroke-width="4" stroke-miterlimit="10" x1="391.736" y1="54.855" x2="373.729" y2="95.251"/>
</g>
<path fill="#1E1E1E" d="M500.202,58.324c0,2.408-1.951,4.359-4.358,4.359h-32.226c-2.408,0-4.359-1.951-4.359-4.359V26.618
	c0-2.408,1.951-4.359,4.359-4.359h32.226c2.407,0,4.358,1.951,4.358,4.359V58.324z"/>
<path fill="#1E1E1E" d="M599,133.772c0,1.972-1.598,3.569-3.569,3.569h-26.385c-1.971,0-3.569-1.598-3.569-3.569v-25.961
	c0-1.971,1.598-3.568,3.569-3.568h26.385c1.972,0,3.569,1.598,3.569,3.568V133.772z"/>
<path fill="#1E1E1E" d="M600.058,27.423c0,2.852-2.312,5.164-5.163,5.164H513.72c-2.852,0-5.164-2.312-5.164-5.164l0,0
	c0-2.852,2.312-5.164,5.164-5.164h81.175C597.747,22.259,600.058,24.571,600.058,27.423L600.058,27.423z"/>
<path fill="#1E1E1E" d="M600.058,44.372c0,2.852-2.312,5.164-5.163,5.164H513.72c-2.852,0-5.164-2.312-5.164-5.164l0,0
	c0-2.852,2.312-5.164,5.164-5.164h81.175C597.747,39.208,600.058,41.521,600.058,44.372L600.058,44.372z"/>
<path fill="#1E1E1E" d="M600.058,60.02c0,2.853-2.312,5.165-5.163,5.165H513.72c-2.852,0-5.164-2.312-5.164-5.165l0,0
	c0-2.852,2.312-5.164,5.164-5.164h81.175C597.747,54.855,600.058,57.168,600.058,60.02L600.058,60.02z"/>
<path fill="#1E1E1E" d="M600.058,76.958c0,2.853-3.557,5.164-7.947,5.164H467.205c-4.389,0-7.947-2.312-7.947-5.164l0,0
	c0-2.853,3.558-5.165,7.947-5.165h124.907C596.501,71.793,600.058,74.105,600.058,76.958L600.058,76.958z"/>
<path fill="#1E1E1E" d="M600.058,92.989c0,2.853-3.557,5.164-7.947,5.164H467.205c-4.389,0-7.947-2.312-7.947-5.164l0,0
	c0-2.852,3.558-5.164,7.947-5.164h124.907C596.501,87.825,600.058,90.138,600.058,92.989L600.058,92.989z"/>
<path fill="#1E1E1E" d="M560.303,109.53c0,2.852-2.554,5.164-5.703,5.164h-89.639c-3.15,0-5.703-2.312-5.703-5.164l0,0
	c0-2.853,2.553-5.164,5.703-5.164H554.6C557.749,104.366,560.303,106.678,560.303,109.53L560.303,109.53z"/>
<circle fill="#1E1E1E" cx="733.499" cy="68.229" r="66.508"/>
<g>
	<g>
		<g>
			<polygon fill="#FFFFFF" points="725.555,106.791 724.524,98.883 732.179,102.354 			"/>
		</g>
		<g>
			<path fill="#FFFFFF" d="M741.589,97.668c-0.28,0-0.562-0.055-0.832-0.175l0.816-1.891l-1.858-0.84l29.221-64.498
				c-0.225-0.748-2.264-3.032-6.568-4.982c-4.243-1.922-7.278-1.977-8.042-1.668l-29.237,64.52l-1.866-0.844l-0.909,1.847
				c-0.989-0.497-1.427-1.692-0.974-2.699l29.2-64.449c0.031-0.085,0.065-0.169,0.104-0.253c0.057-0.119,0.11-0.225,0.174-0.328
				c0.011-0.017,0.021-0.033,0.031-0.046v-0.003c1.937-3.141,8.035-2.175,13.219,0.172c4.969,2.255,9.537,5.977,8.954,9.388
				c-0.018,0.236-0.075,0.472-0.177,0.696l-29.381,64.843C743.121,97.218,742.369,97.668,741.589,97.668L741.589,97.668z"/>
		</g>
		<g>
			<path fill="#FFFFFF" d="M725.341,109.37c-0.282,0-0.568-0.059-0.839-0.181c-0.67-0.3-1.128-0.934-1.206-1.666l-2.062-19.768
				c-0.085-0.8,0.308-1.575,0.999-1.985l3.738-2.205c0.525-0.311,1.155-0.371,1.729-0.169c0.571,0.201,1.027,0.647,1.241,1.216
				l1.171,3.113l3.017-1.146c0.53-0.201,1.119-0.176,1.625,0.07c0.51,0.245,0.898,0.688,1.068,1.227l0.926,2.902l2.924-1.11
				c0.558-0.208,1.178-0.169,1.704,0.109c0.523,0.281,0.901,0.774,1.034,1.354l0.945,4.135c0.183,0.806-0.13,1.642-0.799,2.127
				l-16.009,11.582C726.189,109.237,725.768,109.37,725.341,109.37L725.341,109.37z M725.466,88.644l1.555,14.914l12.018-8.696
				l-0.115-0.505l-2.742,1.043c-0.527,0.198-1.115,0.176-1.625-0.072c-0.511-0.247-0.896-0.688-1.066-1.227l-0.926-2.9l-2.92,1.108
				c-0.509,0.194-1.076,0.179-1.576-0.048c-0.499-0.226-0.888-0.641-1.08-1.151l-1.034-2.751L725.466,88.644L725.466,88.644z"/>
		</g>
		<g>
			<polygon fill="#FFFFFF" points="731.751,104.298 723.376,100.505 725.071,96.755 733.447,100.55 			"/>
		</g>
	</g>
	<g>
		<path fill="#FFFFFF" d="M723.447,105.211h-45.724c0.597,0.911,1.165,1.841,1.703,2.79c0.547,0.763,1.081,1.535,1.588,2.326
			c0.492,0.482,0.979,0.968,1.452,1.469h40.98c1.818,0,3.294-1.475,3.294-3.293S725.266,105.211,723.447,105.211z"/>
	</g>
</g>
<path fill="#1E1E1E" d="M972.974,137.83h-77.045c-6.077,0-11.006-4.928-11.006-11.007V27.769c0-6.078,4.929-11.006,11.006-11.006
	h27.516c-3.042,0-11.006,2.461-11.006,5.504v5.504h5.503h33.019h5.503v-5.505c0-3.042-7.963-5.503-11.007-5.503h27.518
	c6.077,0,11.005,4.928,11.005,11.005v99.056C983.979,132.902,979.051,137.83,972.974,137.83z M906.937,44.278H895.93v11.006h11.007
	V44.278z M906.937,66.289H895.93v11.007h11.007V66.289z M906.937,88.302H895.93v11.006h11.007V88.302z M906.937,110.315H895.93
	v11.005h11.007V110.315z M972.974,44.278h-55.032v11.006h55.032V44.278z M972.974,66.289h-55.032v11.007h55.032V66.289z
	 M972.974,88.302h-55.032v11.006h55.032V88.302z M972.974,110.315h-55.032v11.005h55.032V110.315z M928.947,16.763h-5.503V11.26
	c0.001-3.042,2.461-5.504,5.503-5.504h11.006c3.042,0,5.502,2.462,5.502,5.504v5.503h-5.502H928.947L928.947,16.763z"/>
<text transform="matrix(1.018 0 0 1 60.9839 543.0947)" fill="#050606" font-family="'Calluna-Regular'" font-size="30">Research</text>
<path fill="#E88A7E" d="M143.41,351.356c-9.175,0-17.404,4.134-22.916,10.638c-5.513-6.504-13.741-10.638-22.916-10.638H22.429
	v137.029h74.669c2.839,6.885,9.668,14.475,23.396,14.475c13.685,0,21.06-7.688,24.358-14.475h69.888V351.356H143.41z
	 M143.41,365.601h57.086v96.304h-46.583c-13.96,0-21.974,3.874-26.297,9.383v-89.89C127.615,372.685,134.7,365.601,143.41,365.601z
	 M36.674,365.601h60.904c8.709,0,15.793,7.084,15.793,15.797v89.89c-3.69-5.509-12.002-9.383-26.297-9.383h-50.4V365.601z"/>
<rect x="-7.769" y="339.62" opacity="0.7" fill="#2D2D2D" width="252" height="212.5"/>
<circle fill="#E88A7E" cx="44.997" cy="-4135.294" r="151.492"/>
<text transform="matrix(1 0 0 1 -49.9521 -4135.4878)" fill="#EEBAB6" font-family="'IM_FELL_FLOWERS_1'" font-size="142.4711">U</text>
<text transform="matrix(1 0 0 1 -1.4995 -4091.2437)" fill="#FFFFFF" font-family="'HoeflerText-Regular'" font-size="156.4514">L</text>
<circle fill="none" stroke="#FFFFFF" stroke-width="7" stroke-miterlimit="10" cx="43.525" cy="-4134.265" r="124.815"/>
<circle fill="#E88A7E" cx="435.71" cy="-4091.244" r="151.492"/>
<text transform="matrix(1 0 0 1 340.7612 -4091.4375)" fill="#EEBAB6" font-family="'IM_FELL_FLOWERS_1'" font-size="142.4711">U</text>
<circle fill="none" stroke="#FFFFFF" stroke-width="7" stroke-miterlimit="10" cx="434.238" cy="-4090.215" r="124.815"/>
<circle fill="#E88A7E" cx="1182.772" cy="-4117.587" r="151.492"/>
<circle fill="none" stroke="#FFFFFF" stroke-width="7" stroke-miterlimit="10" cx="1181.301" cy="-4116.558" r="124.815"/>
<text transform="matrix(1 0 0 1 1080.4873 -3661.7197)" fill="#FDFDFE" font-family="'IM_FELL_FLOWERS_2'" font-size="573.751">c</text>
<text transform="matrix(1 0 0 1 651.5518 -4109.064)" font-family="'IM_FELL_FLOWERS_1'" font-size="190.5237">U</text>
<circle fill="#E88A7E" cx="-344.094" cy="-4135.488" r="151.492"/>
<text transform="matrix(1 0 0 1 -439.042 -4135.6821)" fill="#FCFAFB" font-family="'IM_FELL_FLOWERS_1'" font-size="142.4711">U</text>
<text transform="matrix(1 0 0 1 -826.1729 -4134.2656)" fill="#E88A7E" font-family="'IM_FELL_FLOWERS_1'" font-size="182.7527">U</text>
<circle fill="#E88A7E" cx="1573.144" cy="-4109.063" r="151.492"/>
<text transform="matrix(1 0 0 1 1526.6475 -4065.0137)" fill="#FFFFFF" font-family="'HoeflerText-Regular'" font-size="156.4514">L</text>
<circle fill="none" stroke="#FFFFFF" stroke-width="7" stroke-miterlimit="10" cx="1571.672" cy="-4108.035" r="124.815"/>
<g>
	
		<text transform="matrix(1.018 0 0 1 282.2173 -3549.1992)" fill="#49484A" font-family="'HoeflerText-Regular'" font-size="87.2453">L</text>
</g>
<text transform="matrix(1 0 0 1 181.4883 -4260.5557)" fill="#E88A7E" font-family="'HoeflerText-Regular'" font-size="142.3804">R</text>
<circle fill="#E88A7E" cx="1248.83" cy="-3621.52" r="151.492"/>
<circle fill="none" stroke="#FFFFFF" stroke-width="7" stroke-miterlimit="10" cx="1247.358" cy="-3620.491" r="124.815"/>
<text transform="matrix(1.018 0 0 1 247.4946 -2691.5674)" fill="#49484A" font-family="'IM_FELL_FLOWERS_2'" font-size="956.8307">c</text>
<g>
	
		<text transform="matrix(1.018 0 0 1 490.1948 -3549.1992)" fill="#49484A" font-family="'HoeflerText-Regular'" font-size="87.2453">C</text>
</g>
<g>
	
		<text transform="matrix(1.018 0 0 1 387.2109 -3633.7168)" fill="#49484A" font-family="'HoeflerText-Regular'" font-size="87.2453">R</text>
</g>
<text transform="matrix(1.018 0 0 1 1111.6904 -4109.0635)" fill="#E88A7E" font-family="'HoeflerText-Regular'" font-size="52.2751">L</text>
<text transform="matrix(1.018 0 0 1 1207.8086 -4108.0352)" fill="#E88A7E" font-family="'HoeflerText-Regular'" font-size="52.2751">C</text>
<text transform="matrix(1.018 0 0 1 1161.1016 -4159.2446)" fill="#E88A7E" font-family="'HoeflerText-Regular'" font-size="52.2751">R</text>
<circle fill="#E88A7E" cx="387.211" cy="-3054.095" r="151.492"/>
<circle fill="none" stroke="#FFFFFF" stroke-width="7" stroke-miterlimit="10" cx="385.739" cy="-3053.065" r="124.815"/>
<text transform="matrix(1 0 0 1 284.9258 -2598.2275)" fill="#FDFDFE" font-family="'IM_FELL_FLOWERS_2'" font-size="573.751">c</text>
<text transform="matrix(1.018 0 0 1 316.1294 -3045.5713)" fill="#E88A7E" font-family="'HoeflerText-Regular'" font-size="52.2751">L</text>
<text transform="matrix(1.018 0 0 1 412.2471 -3044.543)" fill="#E88A7E" font-family="'HoeflerText-Regular'" font-size="52.2751">C</text>
<text transform="matrix(1.018 0 0 1 365.54 -3095.7529)" fill="#E88A7E" font-family="'HoeflerText-Regular'" font-size="52.2751">R</text>
<circle fill="#5B595A" cx="-67.348" cy="-3043.389" r="151.492"/>
<circle fill="none" stroke="#FFFFFF" stroke-width="7" stroke-miterlimit="10" cx="-68.82" cy="-3042.359" r="124.815"/>
<text transform="matrix(1 0 0 1 -169.6338 -2587.5225)" fill="#FDFDFE" font-family="'IM_FELL_FLOWERS_2'" font-size="573.751">c</text>
<g>
	<text transform="matrix(1.018 0 0 1 -138.4297 -3034.8652)" fill="#49484A" font-family="'HoeflerText-Regular'" font-size="52">L</text>
</g>
<g>
	<text transform="matrix(1.018 0 0 1 -42.3125 -3033.8369)" fill="#49484A" font-family="'HoeflerText-Regular'" font-size="52">C</text>
</g>
<g>
	<text transform="matrix(1.018 0 0 1 -89.0195 -3085.0459)" fill="#49484A" font-family="'HoeflerText-Regular'" font-size="52">R</text>
</g>
<circle fill="#E88A7E" cx="-864.188" cy="-2672.518" r="219.379"/>
<path fill="none" stroke="#FFFFFF" stroke-width="7" stroke-miterlimit="10" d="M-684.571-2671.026
	c0,99.824-80.924,180.746-180.749,180.746c-99.826,0-180.748-80.922-180.748-180.746c0-99.826,80.922-180.75,180.748-180.75
	C-765.495-2851.776-684.571-2770.853-684.571-2671.026z"/>
<text transform="matrix(1 0 0 1 -1012.3096 -2007.3643)" fill="#FDFDFE" font-family="'IM_FELL_FLOWERS_2'" font-size="830.8624">c</text>
<circle fill="#E88A7E" cx="-350.121" cy="-2579.339" r="227.24"/>
<path fill="none" stroke="#FFFFFF" stroke-width="7" stroke-miterlimit="10" d="M-165.104-2577.795
	c0,103.401-83.823,187.223-187.224,187.223c-103.403,0-187.225-83.821-187.225-187.223c0-103.403,83.822-187.227,187.225-187.227
	C-248.928-2765.021-165.104-2681.198-165.104-2577.795z"/>
<text transform="matrix(1 0 0 1 -503.5503 -1895.5352)" fill="#FDFDFE" font-family="'IM_FELL_FLOWERS_2'" font-size="860.6327">c</text>
<circle fill="#E88A7E" cx="1598.674" cy="-2968.381" r="226.5"/>
<path fill="#E88A7E" d="M3213.338-3254.448c0,14.003-21.906,25.354-48.93,25.354h-445.577c-27.023,0-48.93-11.351-48.93-25.354
	v-230.875c0-14.003,21.906-25.354,48.93-25.354h445.577c27.023,0,48.93,11.351,48.93,25.354V-3254.448z"/>
<text transform="matrix(1.018 0 0 1 2837.5957 -3403.5391)"><tspan x="0" y="0" fill="#FFFEFE" font-family="'GoudyBookletter1911'" font-size="70">DATA </tspan><tspan x="-58.974" y="84" fill="#FFFEFE" font-family="'GoudyBookletter1911'" font-size="70">ANALYSIS</tspan></text>
<path fill="#E88A7E" d="M2481.29-3254.448c0,14.003-21.906,25.354-48.93,25.354h-445.577c-27.023,0-48.93-11.351-48.93-25.354
	v-230.875c0-14.003,21.906-25.354,48.93-25.354h445.577c27.023,0,48.93,11.351,48.93,25.354V-3254.448z"/>
<text transform="matrix(1.018 0 0 1 2075.1719 -3349.5342)" fill="#FFFEFE" font-family="'Calluna-Regular'" font-size="70">Research</text>
<text transform="matrix(1.018 0 0 1 48.8076 176.042)" fill="#1E1E1E" font-family="'ProximaNova-Regular'" font-size="25.2818">Research</text>
<text transform="matrix(1.018 0 0 1 486.3027 175.7607)" fill="#050606" font-family="'ProximaNova-Regular'" font-size="25.2818">Content</text>
<text transform="matrix(1.018 0 0 1 685.8594 175.7607)" fill="#050606" font-family="'ProximaNova-Regular'" font-size="25.2818">Graphics</text>
<text transform="matrix(1.018 0 0 1 876.1416 175.7607)" fill="#050606" font-family="'ProximaNova-Regular'" font-size="25.2818">Evaluation</text>
<path fill="#1E1E1E" d="M560.303,126.479c0,2.852-2.554,5.164-5.703,5.164h-89.639c-3.15,0-5.703-2.312-5.703-5.164l0,0
	c0-2.852,2.553-5.164,5.703-5.164H554.6C557.749,121.315,560.303,123.628,560.303,126.479L560.303,126.479z"/>
<g>
	<text transform="matrix(1.018 0 0 1 316.6196 542.7607)" fill="#050606" font-family="'Calluna-Regular'" font-size="30">Analytics</text>
	<rect x="281.857" y="446.187" fill="#E88A7E" width="22.387" height="43.992"/>
	<rect x="310.423" y="426.774" fill="#E88A7E" width="22.388" height="63.404"/>
	<rect x="337.4" y="384.596" fill="#E88A7E" width="22.388" height="105.583"/>
	<circle fill="#E88A7E" cx="400.934" cy="413.601" r="7.154"/>
	<circle fill="#E88A7E" cx="441.489" cy="443.913" r="7.154"/>
	<circle fill="#E88A7E" cx="462.856" cy="399.291" r="7.154"/>
	<circle fill="#E88A7E" cx="382.321" cy="474.226" r="7.155"/>
	
		<line fill="#E88A7E" stroke="#EB8C8C" stroke-width="4" stroke-miterlimit="10" x1="400.935" y1="413.601" x2="382.321" y2="474.226"/>
	
		<line fill="#E88A7E" stroke="#EB8C8C" stroke-width="4" stroke-miterlimit="10" x1="441.489" y1="444.542" x2="399.073" y2="411.387"/>
	
		<line fill="#E88A7E" stroke="#EB8C8C" stroke-width="4" stroke-miterlimit="10" x1="462.856" y1="399.291" x2="441.489" y2="447.226"/>
</g>
<text transform="matrix(1.018 0 0 1 574.9507 542.7607)" fill="#050606" font-family="'Calluna-Regular'" font-size="30">Content</text>
<text transform="matrix(1.018 0 0 1 813.9189 542.7607)" fill="#050606" font-family="'Calluna-Regular'" font-size="30">Graphics</text>
<text transform="matrix(1.018 0 0 1 1054.5068 542.7607)" fill="#050606" font-family="'Calluna-Regular'" font-size="30">Evaluation</text>
<path fill="#E88A7E" d="M591.565,403.407c0,2.857-2.315,5.173-5.172,5.173h-38.24c-2.857,0-5.173-2.315-5.173-5.173v-37.624
	c0-2.856,2.315-5.173,5.173-5.173h38.24c2.856,0,5.172,2.316,5.172,5.173V403.407z"/>
<path fill="#E88A7E" d="M708.802,492.937c0,2.339-1.896,4.234-4.236,4.234h-31.309c-2.34,0-4.234-1.896-4.234-4.234V462.13
	c0-2.339,1.895-4.234,4.234-4.234h31.309c2.34,0,4.236,1.896,4.236,4.234V492.937z"/>
<path fill="#E88A7E" d="M710.058,366.738c0,3.385-2.744,6.128-6.127,6.128h-96.325c-3.384,0-6.128-2.743-6.128-6.128l0,0
	c0-3.384,2.744-6.128,6.128-6.128h96.325C707.313,360.61,710.058,363.354,710.058,366.738L710.058,366.738z"/>
<path fill="#E88A7E" d="M710.058,386.851c0,3.385-2.744,6.129-6.127,6.129h-96.325c-3.384,0-6.128-2.744-6.128-6.129l0,0
	c0-3.384,2.744-6.128,6.128-6.128h96.325C707.313,380.723,710.058,383.467,710.058,386.851L710.058,386.851z"/>
<path fill="#E88A7E" d="M710.058,405.419c0,3.385-2.744,6.129-6.127,6.129h-96.325c-3.384,0-6.128-2.744-6.128-6.129l0,0
	c0-3.384,2.744-6.128,6.128-6.128h96.325C707.313,399.291,710.058,402.035,710.058,405.419L710.058,405.419z"/>
<path fill="#E88A7E" d="M710.058,425.519c0,3.385-4.221,6.127-9.43,6.127H552.41c-5.208,0-9.43-2.742-9.43-6.127l0,0
	c0-3.385,4.222-6.129,9.43-6.129h148.218C705.837,419.39,710.058,422.134,710.058,425.519L710.058,425.519z"/>
<path fill="#E88A7E" d="M710.058,444.542c0,3.385-4.221,6.127-9.43,6.127H552.41c-5.208,0-9.43-2.742-9.43-6.127l0,0
	c0-3.385,4.222-6.129,9.43-6.129h148.218C705.837,438.413,710.058,441.157,710.058,444.542L710.058,444.542z"/>
<path fill="#E88A7E" d="M662.882,464.169c0,3.385-3.029,6.129-6.768,6.129H549.748c-3.737,0-6.768-2.744-6.768-6.129l0,0
	c0-3.385,3.03-6.127,6.768-6.127h106.367C659.853,458.042,662.882,460.784,662.882,464.169L662.882,464.169z"/>
<path fill="#E88A7E" d="M662.882,484.281c0,3.385-3.029,6.128-6.768,6.128H549.748c-3.737,0-6.768-2.743-6.768-6.128l0,0
	c0-3.384,3.03-6.128,6.768-6.128h106.367C659.853,478.153,662.882,480.897,662.882,484.281L662.882,484.281z"/>
<circle fill="#E88A7E" cx="868.401" cy="415.161" r="78.92"/>
<g>
	<g>
		<g>
			<polygon fill="#FFFFFF" points="858.974,460.919 857.751,451.535 866.835,455.653 			"/>
		</g>
		<g>
			<path fill="#FFFFFF" d="M878.001,450.094c-0.332,0-0.666-0.065-0.986-0.208l0.969-2.243l-2.207-0.997l34.676-76.535
				c-0.268-0.887-2.688-3.598-7.795-5.912c-5.035-2.28-8.637-2.346-9.543-1.979l-34.693,76.56l-2.215-1.001l-1.078,2.191
				c-1.174-0.59-1.693-2.008-1.156-3.203l34.65-76.477c0.037-0.101,0.076-0.2,0.123-0.301c0.066-0.141,0.131-0.267,0.205-0.389
				c0.014-0.02,0.025-0.039,0.037-0.055v-0.003c2.299-3.728,9.535-2.581,15.686,0.204c5.896,2.675,11.318,7.092,10.625,11.139
				c-0.02,0.281-0.088,0.561-0.209,0.826l-34.863,76.944C879.819,449.56,878.927,450.094,878.001,450.094L878.001,450.094z"/>
		</g>
		<g>
			<path fill="#FFFFFF" d="M858.72,463.979c-0.334,0-0.674-0.07-0.994-0.215c-0.795-0.355-1.338-1.107-1.432-1.977l-2.445-23.457
				c-0.102-0.949,0.363-1.869,1.186-2.355l4.436-2.617c0.623-0.368,1.371-0.439,2.053-0.2c0.678,0.239,1.219,0.769,1.473,1.443
				l1.389,3.694l3.58-1.361c0.629-0.238,1.328-0.208,1.928,0.084c0.605,0.291,1.066,0.816,1.268,1.455l1.1,3.444l3.469-1.317
				c0.662-0.247,1.396-0.201,2.021,0.13c0.621,0.333,1.07,0.919,1.227,1.606l1.123,4.907c0.217,0.956-0.154,1.947-0.949,2.523
				l-18.996,13.743C859.728,463.822,859.228,463.979,858.72,463.979L858.72,463.979z M858.868,439.385l1.846,17.697l14.26-10.319
				l-0.137-0.599l-3.254,1.237c-0.625,0.235-1.322,0.208-1.928-0.086c-0.605-0.293-1.062-0.816-1.266-1.455l-1.098-3.441
				l-3.465,1.314c-0.605,0.231-1.277,0.213-1.871-0.057c-0.592-0.268-1.053-0.76-1.281-1.366l-1.229-3.265L858.868,439.385
				L858.868,439.385z"/>
		</g>
		<g>
			<polygon fill="#FFFFFF" points="866.327,457.96 856.39,453.46 858.401,449.01 868.339,453.514 			"/>
		</g>
	</g>
	<g>
		<path fill="#FFFFFF" d="M856.474,466.858h-71.777c-2.158,0-3.908-1.75-3.908-3.908s1.75-3.906,3.908-3.906h71.777
			c2.158,0,3.908,1.748,3.908,3.906S858.632,466.858,856.474,466.858L856.474,466.858z"/>
	</g>
</g>
<path fill="#E88A7E" d="M1169.181,497.751h-91.424c-7.211,0-13.059-5.848-13.059-13.061V367.149c0-7.213,5.848-13.06,13.059-13.06
	h32.65c-3.609,0-13.059,2.92-13.059,6.53v6.531h6.529h39.182h6.529v-6.532c0-3.609-9.449-6.53-13.061-6.53h32.652
	c7.211,0,13.059,5.848,13.059,13.059v117.542C1182.239,491.903,1176.392,497.751,1169.181,497.751z M1090.819,386.739h-13.061V399.8
	h13.061V386.739z M1090.819,412.858h-13.061v13.061h13.061V412.858z M1090.819,438.979h-13.061v13.06h13.061V438.979z
	 M1090.819,465.101h-13.061v13.06h13.061V465.101z M1169.181,386.739h-65.303V399.8h65.303V386.739z M1169.181,412.858h-65.303
	v13.061h65.303V412.858z M1169.181,438.979h-65.303v13.06h65.303V438.979z M1169.181,465.101h-65.303v13.06h65.303V465.101z
	 M1116.938,354.089h-6.531v-6.529c0.002-3.609,2.922-6.531,6.531-6.531h13.059c3.609,0,6.529,2.922,6.529,6.531v6.53h-6.529
	L1116.938,354.089L1116.938,354.089z"/>
<text transform="matrix(1 0 0 1 1.3779 365.7383)"><tspan x="0" y="0" fill="#FFFFFF" font-family="'MyriadPro-It'" font-size="18">I like to get dirty with research.</tspan><tspan x="0" y="21.6" fill="#FFFFFF" font-family="'MyriadPro-It'" font-size="18">Whether it is literature review, </tspan><tspan x="0" y="43.2" fill="#FFFFFF" font-family="'MyriadPro-It'" font-size="18">experimental design, permit </tspan><tspan x="0" y="64.8" fill="#FFFFFF" font-family="'MyriadPro-It'" font-size="18">applications, grant writing, or </tspan><tspan x="0" y="86.4" fill="#FFFFFF" font-family="'MyriadPro-It'" font-size="18">data collection, I have done it all.</tspan><tspan x="0" y="108" fill="#FFFFFF" font-family="'MyriadPro-It'" font-size="18">I’m equally comfortable with </tspan><tspan x="0" y="129.6" fill="#FFFFFF" font-family="'MyriadPro-It'" font-size="18">muddy boots in the field and  doing</tspan><tspan x="0" y="151.2" fill="#FFFFFF" font-family="'MyriadPro-It'" font-size="18">field work and lab work.</tspan></text>
<rect x="249.167" y="339.62" opacity="0.7" fill="#2D2D2D" width="252" height="212.5"/>
<text transform="matrix(1 0 0 1 260.3135 374.7383)"><tspan x="0" y="0" fill="#FFFFFF" font-family="'MyriadPro-It'" font-size="18">I can wrangle big data sets and </tspan><tspan x="0" y="21.6" fill="#FFFFFF" font-family="'MyriadPro-It'" font-size="18">small ones. </tspan></text>
<text transform="matrix(1.018 0 0 1 59.4844 781.0693)" fill="#050606" font-family="'Calluna-Regular'" font-size="30">Research</text>
<path fill="#E88A7E" d="M141.911,589.331c-9.175,0-17.404,4.134-22.916,10.638c-5.513-6.504-13.741-10.638-22.916-10.638H20.929
	V726.36h74.669c2.839,6.885,9.668,14.475,23.396,14.475c13.685,0,21.06-7.688,24.358-14.475h69.888V589.331H141.911z
	 M141.911,603.575h57.086v96.304h-46.583c-13.96,0-21.974,3.874-26.297,9.383v-89.89
	C126.116,610.659,133.201,603.575,141.911,603.575z M35.174,603.575h60.904c8.709,0,15.793,7.084,15.793,15.797v89.89
	c-3.69-5.509-12.002-9.383-26.297-9.383h-50.4V603.575z"/>
<rect x="-9.269" y="577.595" opacity="0.7" fill="#2D2D2D" width="252" height="212.5"/>
<text transform="matrix(1 0 0 1 52.585 609.7129)"><tspan x="0" y="0" fill="#FFFFFF" font-family="'MyriadPro-It'" font-size="18">Literature Review</tspan><tspan x="-12.132" y="21.6" fill="#FFFFFF" font-family="'MyriadPro-It'" font-size="18">Experimental Design</tspan><tspan x="-56.132" y="43.2" fill="#FFFFFF" font-family="'MyriadPro-It'" font-size="18">Permit &amp; Regulatory Applications</tspan><tspan x="11.151" y="64.8" fill="#FFFFFF" font-family="'MyriadPro-It'" font-size="18">Grant Writing </tspan><tspan x="6.246" y="86.4" fill="#FFFFFF" font-family="'MyriadPro-It'" font-size="18">Data Collection</tspan><tspan x="24.128" y="108" fill="#FFFFFF" font-family="'MyriadPro-It'" font-size="18">Field Work</tspan><tspan x="27.836" y="129.6" fill="#FFFFFF" font-family="'MyriadPro-It'" font-size="18">Lab Work</tspan></text>
</svg>
